<svg width="25" height="25" viewBox="0 0 25 25" fill="none" xmlns="http://www.w3.org/2000/svg">
<path fill-rule="evenodd" clip-rule="evenodd" d="M1.83059 1.83059C-1.49012e-07 3.66116 0 6.60744 0 12.5C0 18.3925 -1.49012e-07 21.3389 1.83059 23.1694C3.66116 25 6.60744 25 12.5 25C18.3925 25 21.3389 25 23.1694 23.1694C25 21.3389 25 18.3925 25 12.5C25 6.60744 25 3.66116 23.1694 1.83059C21.3389 -1.49012e-07 18.3925 0 12.5 0C6.60744 0 3.66116 -1.49012e-07 1.83059 1.83059ZM5.52981 9.39985C5.86129 9.00209 6.45244 8.94835 6.8502 9.27981L7.19572 9.56775C7.95191 10.1979 8.59566 10.7342 9.04119 11.2276C9.51439 11.7516 9.88368 12.3542 9.88368 13.125C9.88368 13.8958 9.51439 14.4984 9.04119 15.0224C8.59566 15.5158 7.95191 16.0522 7.19572 16.6823L6.8502 16.9702C6.45244 17.3018 5.86129 17.248 5.52981 16.8503C5.19835 16.4524 5.25209 15.8612 5.64985 15.5299L5.94285 15.2856C6.76606 14.5996 7.30435 14.1481 7.6496 13.7657C7.97745 13.4028 8.00868 13.2325 8.00868 13.125C8.00868 13.0175 7.97745 12.8474 7.6496 12.4843C7.30435 12.1019 6.76606 11.6504 5.94286 10.9644L5.64985 10.7202C5.25209 10.3887 5.19835 9.79761 5.52981 9.39985ZM19.6875 16.25C19.6875 16.7677 19.2677 17.1875 18.75 17.1875H12.5C11.9823 17.1875 11.5625 16.7677 11.5625 16.25C11.5625 15.7323 11.9823 15.3125 12.5 15.3125H18.75C19.2677 15.3125 19.6875 15.7323 19.6875 16.25Z" fill="#1C274C"/>
</svg>
